<?xml version="1.0" standalone="no"?><!DOCTYPE svg PUBLIC "-//W3C//DTD SVG 1.1//EN" "http://www.w3.org/Graphics/SVG/1.1/DTD/svg11.dtd"><svg t="1640145733119" class="icon" viewBox="0 0 1024 1024" version="1.1" xmlns="http://www.w3.org/2000/svg" p-id="5339" xmlns:xlink="http://www.w3.org/1999/xlink" width="200" height="200"><defs><style type="text/css"></style></defs><path d="M475.78247953 73.47434674c17.32567872 0 31.91057208 13.21450073 33.47673514 30.54017942 1.56616304 17.32567872-10.27794501 32.889424-27.40785334 36.02175009l-6.0688818 0.48942596H140.62358738v737.46702493H878.09061233V542.73594982l0.48942595-6.06888182c2.83867052-15.95528606 16.73836758-27.50573853 32.98730918-27.50573852s30.05075349 11.55045247 32.98730919 27.50573852l0.48942594 6.06888182v335.25677732c0 37.00060199-30.05075349 67.05135547-67.05135546 67.05135545H140.62358738c-37.00060199 0-67.05135547-30.05075349-67.05135546-67.05135546V140.52570219c0-17.81510467 7.04773371-34.84712781 19.67492329-47.37643216C105.77645959 80.52208045 122.80848274 73.47434674 140.62358738 73.47434674H475.78247953z m167.67733127 0H912.35042898l4.111178 0.29365558 4.11117799 0.8809667 6.06888182 2.34924458 3.52386685 2.05558901 2.74078534 2.05558898 4.01329281 4.01329282c5.38368548 6.26465218 8.02658561 13.89969706 8.1244708 21.4368567v268.49907744c0 17.32567872-13.21450073 31.91057208-30.54017942 33.47673513-17.32567872 1.56616304-32.889424-10.37583018-36.02175009-27.40785333l-0.48942595-6.06888181V187.706364L531.18549732 534.70936418c-13.21450073 11.2567969-32.69365361 10.57160056-45.12507279-1.56616304-12.43141919-12.03987844-13.50815629-31.61691652-2.64290014-45.12507281l347.39454094-347.59031131H643.4598108c-17.32567872 0-31.91057208-13.21450073-33.47673516-30.54017942-1.56616304-17.32567872 10.27794501-32.889424 27.40785333-36.0217501l6.06888182-0.39154076z m-1e-8 0" p-id="5340"></path></svg>