<?xml version="1.0" standalone="no"?><!DOCTYPE svg PUBLIC "-//W3C//DTD SVG 1.1//EN" "http://www.w3.org/Graphics/SVG/1.1/DTD/svg11.dtd"><svg t="1640145725313" class="icon" viewBox="0 0 1024 1024" version="1.1" xmlns="http://www.w3.org/2000/svg" p-id="5055" xmlns:xlink="http://www.w3.org/1999/xlink" width="200" height="200"><defs><style type="text/css"></style></defs><path d="M614.03591147 147.456a34.13333333 34.13333333 0 0 0-32.22186667 24.46222187l-204.8 659.91111146a34.13333333 34.13333333 0 1 0 65.1719104 20.2524448l204.8-659.91111146a34.13333333 34.13333333 0 0 0-32.95004373-44.71466667zM273.29422187 261.3248a34.13333333 34.13333333 0 0 0-23.73404374 9.73937813l-227.55555626 216.17777707a34.13333333 34.13333333 0 0 0 0 49.5160896l227.55555626 216.17777707a34.13333333 34.13333333 0 1 0 47.01297707-49.51608854L95.07271147 512l201.50044373-191.41973333a34.13333333 34.13333333 0 0 0-23.27893333-59.25546667z m476.38755626 0.04551147a34.13333333 34.13333333 0 0 0-22.25493333 59.2099552L928.92728853 512l-201.50044373 191.41973333a34.13333333 34.13333333 0 1 0 47.01297707 49.51608854l227.55555626-216.17777707a34.13333333 34.13333333 0 0 0 0-49.5160896l-227.55555626-216.17777707a34.13333333 34.13333333 0 0 0-24.75804374-9.69386666z" p-id="5056"></path></svg>